General
Complete name                    : What Ever Happened to Baby Jane.mkv
Format                           : Matroska
File size                        : 1.79 GiB
Duration                         : 2h 8mn
Overall bit rate                 : 1 998 Kbps


Video
ID                               : 1
Format                           : AVC
Duration                         : 2h 8mn
Bit rate                         : 1 441 Kbps
Width                            : 716 pixels
Height                           : 576 pixels
Display aspect ratio             : 16:9
Frame rate                       : 25.000 fps
Resolution                       : 8 bits
Colorimetry                      : 4:2:0
Scan type                        : Progressive
Bits/(Pixel*Frame)               : 0.140
Stream size                      : 1.29 GiB (72%)
Writing library                  : x264 core 79


Audio #1
ID                               : 2
Format                           : MPEG Audio
Format version                   : Version 1
Format profile                   : Layer 3
Mode                             : Joint stereo / MS Stereo
Codec ID                         : A_MPEG/L3
Codec ID/Hint                    : MP3
Duration                         : 2h 8mn
Bit rate mode                    : Constant
Bit rate                         : 128 Kbps
Channel(s)                       : 2 channels
Sampling rate                    : 48.0 KHz
Stream size                      : 117 MiB (6%)
Writing library                  : LAME3.98
Language                         : English

Audio #2
ID                               : 3
Format                           : MPEG Audio
Format version                   : Version 1
Format profile                   : Layer 3
Mode                             : Joint stereo / MS Stereo
Codec ID                         : A_MPEG/L3
Codec ID/Hint                    : MP3
Duration                         : 2h 8mn
Bit rate mode                    : Constant
Bit rate                         : 128 Kbps
Channel(s)                       : 2 channels
Sampling rate                    : 48.0 KHz
Stream size                      : 117 MiB (6%)
Writing library                  : LAME3.98
Language                         : German

Audio #3
ID                               : 4
Format                           : MPEG Audio
Format version                   : Version 1
Format profile                   : Layer 3
Mode                             : Joint stereo / MS Stereo
Codec ID                         : A_MPEG/L3
Codec ID/Hint                    : MP3
Duration                         : 2h 8mn
Bit rate mode                    : Constant
Bit rate                         : 128 Kbps
Channel(s)                       : 2 channels
Sampling rate                    : 48.0 KHz
Stream size                      : 117 MiB (6%)
Writing library                  : LAME3.98
Language                         : Spanish

Audio #4
ID                               : Directors Commentary
Format                           : MPEG Audio
Format version                   : Version 1
Format profile                   : Layer 3
Mode                             : Joint stereo / MS Stereo
Codec ID                         : A_MPEG/L3
Codec ID/Hint                    : MP3
Duration                         : 2h 8mn
Bit rate mode                    : Constant
Bit rate                         : 128 Kbps
Channel(s)                       : 2 channels
Sampling rate                    : 48.0 KHz
Stream size                      : 117 MiB (6%)
Writing library                  : LAME3.98
Language                         : English

Text #1
Language                         : English

Text #2
Language                         : Danish

Text #3
Language                         : Finnish

Text #4
Language                         : German

Text #5
Language                         : Greek

Text #6
Language                         : Norwegian

Text #7
Language                         : Polish

Text #8
Language                         : Portuguese

Text #9
Language                         : Spanish

Text #10
Language                         : Swedish

Text #11
Language                         : English

Text #12
Language                         : German 
http://en.wikipedia.org/wiki/What_Ever_Happened_to_Baby_Jane%3F_%28film%29